<?xml version="1.0" encoding="utf-8"?>
<!-- Generator: Adobe Illustrator 24.0.1, SVG Export Plug-In . SVG Version: 6.00 Build 0)  -->
<svg version="1.1" id="Layer_1" xmlns="http://www.w3.org/2000/svg" xmlns:xlink="http://www.w3.org/1999/xlink" x="0px" y="0px"
	 viewBox="0 0 174 139.2" style="enable-background:new 0 0 174 139.2;" xml:space="preserve">
<style type="text/css">
	.st0{fill:#FFFFFF;}
</style>
<path class="st0" d="M102.1,63.3c0.4,2.2,0.7,4.4,0.7,7.3c0,25.2-16.9,43-42.3,43c-24.3,0-44-19.7-44-44s19.7-44,44-44
	c11.9,0,21.8,4.3,29.5,11.5L78.1,48.6c-3.2-3.1-8.9-6.8-17.5-6.8c-15,0-27.3,12.4-27.3,27.8s12.2,27.8,27.3,27.8
	c17.4,0,24-12.5,25-19h-25V63.3L102.1,63.3L102.1,63.3z M144.6,64.8V52h-12.8v12.8H119v12.8h12.8v12.8h12.8V77.6h12.8V64.8
	L144.6,64.8L144.6,64.8z"/>
</svg>
