<?xml version="1.0" encoding="utf-8"?>
<!-- Generator: Adobe Illustrator 24.0.1, SVG Export Plug-In . SVG Version: 6.00 Build 0)  -->
<svg version="1.1" id="Capa_1" xmlns="http://www.w3.org/2000/svg" xmlns:xlink="http://www.w3.org/1999/xlink" x="0px" y="0px"
	 viewBox="0 0 4400 4400" style="enable-background:new 0 0 4400 4400;" xml:space="preserve">
<style type="text/css">
	.st0{fill:#ECECEC;}
	.st1{fill:none;}
	.st2{fill:#2A76EA;}
	.st3{fill:#FFC561;}
	.st4{fill:#FF9180;}
	.st5{fill:#BFBFBF;}
	.st6{fill:#FFFFFF;}
	.st7{fill:#333333;}
</style>
<g id="Sombra">
	<path class="st0" d="M655.6,3960.2c-11.2,22.6,4.3,49.4,27.7,63.4c25.3,12.6,52.9,19.9,81.1,21.5c236.3,28.3,476.8,38.8,713.5,14.3
		c39.2-4.1,85.1-13.3,99.8-44.6c19.2-40.8-29.8-80.9-75.7-100.6c-103.4-43.1-216-59.2-327.4-47c-49.6,5-99.1,2.8-148.8,5.4
		c-60.3,2.9-120.3,10.9-179.3,24C781,3911.3,717,3932.7,655.6,3960.2z"/>
	<path class="st0" d="M2574.8,3864.4c-27.6,2.7-55.7,6.1-79.7,20.8c-24,14.7-40.1,44.6-31.3,70.3c11.1,34.2,54.5,43.4,90.3,46.9
		c144.9,14.8,291.7,29.5,437.5,19.3c64-4.6,127.6-13.9,190.2-28c26.6-6,57-15.9,66.9-41.5c17.8-46.5-38-74.9-73-85.2
		c-30.8-9.3-62.8-14.3-95-14.9c-106.2-1.8-211.8-5.4-318.4-1C2699.5,3853.8,2637,3858.1,2574.8,3864.4z"/>
</g>
<g id="Color">
	<path class="st1" d="M2836.8,620.5l19.4,334.5l-14.6,1295.8c0,0-21.7,1669.7-14.5,1669.7c3.2,0,34.9,29.2,57,29.8
		c28.1,0.7,47.4-27.3,47.4-27.3l9.7-2019.1l9.7-1067.8l9.7-191.7c0,0-19.4-65.6-58.2-53.4C2879.4,598.1,2857.3,608,2836.8,620.5z"/>
	<path class="st2" d="M947.5,2113.3c44.4,306.1,25.8,618.1-54.8,916.8c206,91.4,408,103.9,603.4,7.8
		c-76.4-343.1-126.4-673.1-113.5-972C1274.3,2153.4,1123.1,2157.2,947.5,2113.3z"/>
	<polygon class="st3" points="2407.1,851 2458,999.1 2419.2,1164.1 3268.7,1130.1 3275.9,1195.6 3542.8,999.1 3288.1,807.3 
		3280.7,868 	"/>
	<polygon class="st2" points="3348.7,1535.3 2528.4,1346 2538.2,1282.9 2249.3,1414 2441.1,1644.6 2465.4,1598.5 2868.2,1697.9 
		3285.6,1630 	"/>
	<path class="st4" d="M2246.9,1787.8l99.3,186.9c0,0-36.5,208.7-31.6,201.5c4.9-7.2,1162.4-242.7,1162.4-242.7l9.8,89.7l257.2-301
		l-332.5-169.9l-2.5,70.5L2246.9,1787.8z"/>
	<path class="st5" d="M1119.9,2138.1l50.9,141.1l-31.3,422.9c0,0,101.9,145,113.6,133.2c11.8-11.8,101.9-180,101.9-180l-86.2-376.1
		l27.4-153.1L1119.9,2138.1z"/>
	<path class="st6" d="M1691.9,722.1c0,0-176.8,125.5-364.4,55.1c-187.7-70.4-372-47-536.8,82.2s-180,270.4-172.3,309.6
		c7.7,39.2,43.1,90.1,43.1,90.1l-24,113.6c0,0-105.8-15.7-90.1,164.5c15.7,180.2,105.8,172.4,105.8,172.4s109.7,387.8,344.8,411.4
		c235.1,23.5,470.2,31.3,579.8-219.4c109.7-250.7,47-466.3,19.6-588c-16.5-73-44.2-143.1-82.2-207.6l50.9-117.5
		c0,0,19.3,27.1,101.9-51C1813.4,800.7,1691.9,722.1,1691.9,722.1z"/>
</g>
<g id="Trazos">
	<path class="st7" d="M927.2,2130.6c40.4,233.3,34.9,472.3-16.2,703.6c-7.4,33.4-15.6,66.6-24.7,99.6c-4.3,15.7-8.8,31.4-13.4,47.2
		c-5.6,18.7-12,34.8-8.8,54.6c3.5,12,16,18.9,28,15.4c3.6-1,6.8-2.9,9.5-5.5c10.4-11.9,17.4-26.4,20.3-42c4.5-14.8,8.8-29.6,13-44.3
		c8.4-30.4,16.2-60.7,23.3-91.4c13.8-60,24.8-120,32.8-181.4c15.8-119.3,18.7-240,8.6-360c-6.4-69.6-16.9-138.7-31.6-207
		c-5.8-26.8-45.2-15.1-40.7,11.2L927.2,2130.6z"/>
	<path class="st7" d="M946.7,2209.4c-31.1,27.4-59.4,58.2-88.4,87.7c-29,29.5-58.1,60-86.9,89.5s-56.2,58.6-84,88l-40.9,43.1
		c-14,12.6-26.2,27.1-36,43.2c-17.6,35,6.8,76.2,21.2,108c14.7,32.4,31.2,64,49.4,94.6c36.4,60.9,79.2,117.6,127.8,169.3
		c7,7.4,14.2,14.9,21.5,22.2c5,4.9,15.8,12,18.2,18.2c0,0,1,3.1,0,0c-0.4,4.5-2,8.9-4.6,12.6c-3.1,6-6.8,11.7-11.3,16.8
		c-22.8,26-56.3,33.2-88.6,40.8c-24,5.4-21.5,39.2,0,45.7c65,19.6,146.5-35.2,160.9-100.3c9.5-42.6-25.9-66.6-51.7-93.7
		c-25.1-26-48.5-53.4-70.3-82.2c-43.3-57.7-79.8-120.3-108.8-186.4c-4.1-9.1-16.6-29.6-14.2-39.7c1.4-6,10-12,14-16.4l24-25.9
		c29.1-31,58.2-62,87.4-93.2c32.4-34.7,64.9-69.4,96.8-104.5c31.9-35.2,65.5-69.5,94.9-106.7c7.9-9,7.1-22.7-1.9-30.7
		c-8.2-7.3-20.6-7.2-28.8,0.1L946.7,2209.4z"/>
	<path class="st7" d="M1361,2113.3c-2.4,244.8,20.8,489.1,69.4,729c12,68.8,27.6,136.9,46.8,204c11.2,36,63.5,21.1,56-15.4
		c-12-58.8-28-116.8-40.1-175.6c-12.1-58.8-23.3-120-32.8-180c-18.6-118-30.8-236.8-38.8-355.8c-4.6-68.6-7.9-137.4-9.5-206
		c-0.7-32.9-50.8-33-51.1,0L1361,2113.3z"/>
	<path class="st7" d="M883.4,3069.7c97.3,36,200.1,54.7,303.8,55.1c51.7,0.1,103.4-4.1,154.4-12.7c24.6-4.2,49.1-9.4,73.3-15.5
		c27.1-5.2,53.3-13.9,78.2-25.7c12.2-7.1,17.4-22.1,12-35.2c-5.6-12.7-19.6-19.6-33.1-16.2l31.7,12.8c-6.5-10.9-19.4-16.1-31.7-12.8
		c-24,3.7-48,14.6-72,20.8s-48.7,11.4-73.3,15.5c-143.7,23.6-291.1,11.3-428.9-36c-14.1-4-28.8,4.2-32.7,18.3c0,0,0,0,0,0.1
		c-3.5,13.9,4.5,28,18.2,32.2V3069.7z"/>
	<path class="st7" d="M1012,3070.4c-57.4,219.7-58.4,447-47.3,672c3.1,64.3,7.2,128.5,12,192.8l21.6-28.4
		c-26.6,11.2-54.6,18.6-83.2,22.1c-14.3,1.5-28.7,2.1-43.1,1.7c-7.1,0-14.3-1.2-21.5-1.3c-8.9,0.5-17.6,3-25.4,7.3
		c-11.4,6.7-15.3,21.4-8.5,32.8c1,1.8,2.3,3.4,3.7,4.8c6.6,6.5,14.9,11.2,24,13.3c8.4,1.3,16.9,2,25.4,2c16,0.5,32.1-0.2,48-1.9
		c32.9-3.6,65.2-11.7,96-24c12.6-3.8,21.3-15.3,21.6-28.4c-14.4-221.8-28.6-445.2-4.3-666.8c6.2-62.1,15.6-123.8,28.1-184.9
		c6.5-30.6-39.2-43.8-47.3-13.1H1012z"/>
	<path class="st7" d="M1293.8,3101c2.2,110.6,7.2,221.3,8.3,331.9c1.1,110.6-1.2,221.5-6.8,332.2c-3.1,63.3-7.4,126.4-12.7,189.5
		c-0.2,10.5,5.4,20.3,14.6,25.4c27.5,15,57.4,25,88.4,29.4c15.1,2.3,30.4,3.2,45.7,2.8c8.5-0.2,17-1.1,25.4-2.5
		c9.1-2.2,17.4-6.9,24-13.6c15.2-12.6,4.8-34.8-10.7-40.4c-22.8-8.3-49.8-0.7-74-3.8c-24.3-3.3-47.8-11-69.4-22.7l14.6,25.4
		c19.5-220.9,24.6-442.9,15.5-664.4c-2.9-63.4-7.6-126.7-15.2-189.6c-0.4-13.1-10.9-23.6-24-24c-13.3,0-24,10.7-24,24L1293.8,3101z"
		/>
	<path class="st7" d="M1399.6,2220.1c157.6-79.2,305.5-176.4,440.8-289.7c34.6-28.6,68.6-57.7,101.8-88
		c29.8-27.2,68.2-56.4,84.8-94.1c19.7-44.2,1.9-89.4-15.2-131.2c-17.2-41.8-36-84-57.1-124.9c-22.6-44.8-47.4-88.3-74.4-130.6
		c-13.4-21.1-27.5-41.6-42.4-61.7c-14.2-20.9-30.2-40.4-48-58.3c-9-8.9-23.5-8.9-32.4,0.1c-7.3,7.3-8.8,18.6-3.6,27.6
		c19.3,37.4,45.7,72,68.2,108s42.4,70.4,61.9,106.7c19.6,36.2,39.5,76.8,56.9,116.3c8,17.5,15.4,35.2,22.3,52.9
		c7.1,18.4,16.8,40.2,13.7,60c-3.6,14.1-11.6,26.7-22.9,36c-16.1,16.3-32.9,31.8-49.6,48c-30.1,28.1-60.6,55.9-92,82.6
		c-63.4,53.7-129.6,104.3-198.1,151.3c-77.2,52.9-157,102.6-238.6,148.2c-26.8,15-3.1,54.1,24,40.8V2220.1z"/>
	<path class="st7" d="M2413.7,864.3c225,3.8,449.7,19,674.8,21.6c29.8,0,59.4,0,89.2,0c30.3-1.6,60.6-1.6,90.9,0
		c30,2.9,28.8-49.7-5.9-44.6c-26.6,3.2-53.5,4.4-80.3,3.6c-26.1,0-52.1,0-78,0c-51.5,0-103.1-0.7-154.7-2.2
		c-108.9-2.7-217.7-7-326.7-9.9c-69.6-1.8-139.3-2.7-208.9-2.8c-9.2,0-16.7,7.5-16.7,16.7c0,9.2,7.5,16.7,16.7,16.7L2413.7,864.3z"
		/>
	<path class="st7" d="M2413.7,1184.3c226-1.6,451.1-18.8,676.9-28.9c61-2.7,122-4.4,183-5.1c28.1,0,28.2-44.6,0-43.8
		c-216.1,2.8-431.6,22.3-647.4,31.7c-70.8,3.3-141.4,5.6-211.8,6.8c-25.3,0-25.4,39.5,0,39.4H2413.7z"/>
	<path class="st7" d="M3298.8,867.2c1.6-18.8,3.6-37.7,5.1-56.4l-32.3,18.8c47.6,24.5,90.1,60.3,132,93.3
		c23.5,18.5,46.9,37.1,70.6,55.7c19.6,17,40.6,32.2,62.9,45.5c26.9,13.9,45.9-22.3,23.1-39.6c-19.3-14.8-40.4-27.9-59.9-42.6
		c-24.5-18.4-48.5-37.3-72.8-55.7c-42.7-33.4-85.7-68.7-133.8-93.4c-10.7-6-24.3-2.2-30.4,8.5c-1.7,3.1-2.7,6.6-2.9,10.1
		c-1.6,18.7-3.7,37.6-5.2,56.4c-2.2,27.8,41.1,27.6,43.4,0L3298.8,867.2z"/>
	<path class="st7" d="M3252.2,1134.8c1.7,21,3.3,41.8,4.9,62.8c0.6,12.3,11.1,21.7,23.4,21.1c3.2-0.2,6.3-1,9.1-2.5
		c48.7-24.8,92.5-60.4,135.9-93.3c24.3-18.5,48.6-37.2,73.2-55.7c20-14.8,41.4-28,61.1-43.1c23-17.5,3.8-53.5-23.1-39.6
		c-21.5,12.8-41.9,27.4-61,43.6c-24.3,18.6-48.5,37.6-72.8,55.7c-43.1,33.4-86.6,69.2-135.2,94.4l32.6,18.6
		c-1.7-21-3.2-41.8-4.8-62.8c-2.1-27.6-45.6-27.9-43.4,0L3252.2,1134.8z"/>
	<path class="st7" d="M2261,1805.3c153.4-22.3,307-42.9,460.7-63.8c155.4-21.2,310.8-42.4,465.7-66.9c39-6.2,78-12.6,117-19.4
		c34.2-6,68.7-14.4,103.2-17.9s24.5-53.3-5.9-43.9c-30,8.2-60.5,14.7-91.3,19.4c-34.3,6.2-68.6,12.2-103,17.9
		c-74.1,12.5-148.4,24-223,35.1c-159.7,24.1-319.5,46.2-479.4,69.1c-84.5,12.1-168.9,24.8-253.3,38.1c-21.3,3.5-12,35.3,8.9,32.3
		L2261,1805.3z"/>
	<path class="st7" d="M2325.1,2195.1c154.5-26.8,308.2-59.1,461.6-92.2c153.4-33.1,307-68.5,461-100.3
		c74.4-15.7,148.9-30.8,223.8-44.6c27.6-4.8,15.9-47-11.1-42.1c-139.9,25-278.7,55.7-417.5,86.4c-157.5,34.9-314.8,70.8-472.7,104.2
		c-84.7,17.9-169.7,35.1-255,50.6c-25,4.5-14.4,42.3,10.5,37.9L2325.1,2195.1z"/>
	<path class="st7" d="M2231,1801.1c24.2,59.1,49.8,117.6,78.7,174.7c2.5,3.9,4.3,8.3,5.1,12.9c-0.2,6.7-1.1,13.4-2.7,20
		c-2.3,16.8-4.3,33.4-6.6,50.3c-4.1,32.1-9.6,64.4-12.2,96.8c-2.3,29.9,47.6,37.1,52.8,7.1c6-33.4,9-67.6,13.4-101.2
		c2.1-17.1,4.5-33.4,6.5-51.1c3.6-16,2.3-32.7-3.6-47.9c-13.7-29.8-30.9-58.2-45.8-87.3s-31.6-60.3-46.8-90.6
		C2258.8,1763.6,2221.9,1778.6,2231,1801.1L2231,1801.1z"/>
	<path class="st7" d="M3426.4,1621.4l-2.3-71.7l-28,16.1c114.7,55.1,229.3,109.8,342.7,167.2l-4-30.3
		c-44.6,52.8-89.2,105.2-133,158.5l-65,78.8c-22.3,26.5-45.3,52.7-65.1,80.9l31.8,4.1c-8.2-27.9-14.4-56.3-18.5-85.1
		c-3.5-21.3-35.5-12.2-32.2,8.9c4.3,28.8,11.1,57,17.2,85.4c2.8,9.3,12.6,14.6,21.9,11.9c2.7-0.8,5.2-2.2,7.2-4.2
		c23.7-24.1,44.6-51.3,66.9-77l65.9-78c44-52,87.1-104.7,130.7-157.1c7.5-7.7,7.4-20.1-0.4-27.6c-1.1-1-2.3-2-3.5-2.7
		c-113.1-58.3-227.2-114.8-343.5-166.3c-11.7-5.2-29,0-28,16.1l4.7,71.7c1.6,22.3,35.6,22.3,34.9,0L3426.4,1621.4z"/>
	<path class="st7" d="M2870.8,1684.6c-72.8-21.2-145.7-42-219.1-60.9c-60.2-15.5-122-26.4-181.4-44.6c-27.6-8.3-38.8,38.2-11.1,42.1
		c61.2,8.9,122.6,25.5,182.4,40.5c73.6,18.2,146.6,38.2,219.6,58.8c10,2.8,20.4-3.1,23.2-13.2c2.8-10-3.1-20.4-13.2-23.2
		L2870.8,1684.6z"/>
	<path class="st7" d="M3358.8,1516.4c-218.6-55.1-439.3-101.7-659-151.8c-56-12.7-111.7-25.9-167.2-39.6
		c-27.3-6.8-39,35.5-11.7,42.1c210.7,51.7,423.7,95.1,635.5,142.5c64.3,14.5,128.5,29.4,192.7,44.6c24.6,6,35.1-31.8,10.5-37.9
		L3358.8,1516.4z"/>
	<path class="st7" d="M2448.8,1590.8l-21.7,53.3l31.1-8.3c-65.9-78-132.1-154.9-196.4-234.1l-3.9,30.3c48.9-24,98.1-47.4,146.8-71.8
		l71.7-36.1c24.6-12.4,50.4-23.6,73.7-38.2l-26.2-15.1c-2.8,21.6-7.2,42.9-13.3,63.8c-2.2,9,3.3,18,12.3,20.2
		c8.6,2.1,17.3-2.8,20-11.3c6.1-22.3,10.4-45.3,15.3-68.1c2.5-11.8-8.1-26.3-21.4-21.3c-25.6,9.5-50.1,22.3-74.7,34.5l-74.8,36.2
		c-49.9,24.1-99.3,49.2-148.9,73.8c-9.3,5.7-12.2,17.9-6.4,27.2c0.7,1.2,1.6,2.3,2.5,3.3c63.8,79.3,128.9,157.8,197.6,232.8
		c7.5,7.2,19.4,7,26.6-0.5c2.1-2.2,3.6-4.8,4.5-7.6c6.5-17.9,13-35.9,19.5-54c7.7-21.4-25.3-29.4-33.4-9.3L2448.8,1590.8z"/>
	<path class="st7" d="M2390.8,854.3c7.6,24.6,14.4,49.4,22.3,73.9c9.3,23.7,16.7,48,22.3,72.8c3.3,23.9-7.8,48.6-14.9,70.8
		c-8.9,23.1-16,46.8-21.1,71c-2.9,10.8,2.6,22.1,12.9,26.4c10.3,4.4,22.3,0.5,28-9.1c9.9-24.7,17.8-50.2,23.6-76.3
		c7.5-26.3,15.8-53,12.5-80.6c-5.1-26.4-13-52.2-23.5-76.9c-9.6-26.9-19.8-53.5-29.4-80.4c-6.9-19.7-38-11.7-31.7,8.7L2390.8,854.3z
		"/>
	<path class="st7" d="M3345,1530.6c-14.6,15.3-30.8,28.9-46.3,43.3c-6.4,5.7-12.5,11.7-18.3,18.1c-3.6,4.1-7,8.4-10.5,12.6
		c-5.5,6.2-10.4,12.7-14.9,19.6c-5.7,9.8-3.2,22.3,5.8,29.1c8.9,7,21.6,6.2,29.5-1.8c5.2-6.2,10.1-12.7,14.6-19.4l5.2-7l-1.6,2.1
		l1.4-1.9l2.1-2.7l4.8-6.2l-0.8,1c1.4-1.8,2.9-3.7,4.5-5.5c1.6-1.8,5-6,7.6-9c13.8-15.8,27.5-31.8,40.9-48.1
		c6.3-7.1,5.8-17.9-1.3-24.2c-6.5-5.9-16.5-5.9-23,0.1L3345,1530.6z"/>
	<path class="st7" d="M2821.7,2071.3c-2.1,249.5-3.6,499.1-4.5,748.7c-1,243.3-2,486.5-5.2,729.7c-1.6,125.5-4.2,251.1-5.9,376.6
		c0,27.8,42.6,27.8,43.3,0c5.1-230.1,5-460.3,6.8-690.6c1.9-248.6,3.4-497.3,4.7-746c0.5-139.4,1.1-278.9,1.8-418.4
		C2862.6,2044.9,2821.9,2044.9,2821.7,2071.3L2821.7,2071.3z"/>
	<path class="st7" d="M2834.6,1151.9c-0.9,81.7-2.6,163.4-4.1,245.3c0,24.8,38.1,24.8,38.6,0c1.2-81.7,2.7-163.4,3.2-245.3
		c0-10.4-8.4-18.8-18.8-18.8C2843.1,1133.1,2834.6,1141.5,2834.6,1151.9z"/>
	<path class="st7" d="M2924.6,2047.4c-1.1,249.8-0.7,499.8-0.6,749.7c0,125.8,0,251.5-1.6,377.3c-1.6,120.1-1.4,240.1-2.1,360.2
		c0,33.4-1.8,66.1,0,99.3c1.8,33.2-1,64.9-1.9,97.4c-1.6,62.8-1.4,125.9-4.8,188.5c-1.4,26.1,40.8,26.4,40.7,0
		c0-55.7,2.7-111.5,3.2-167.2c0-28.3,0-56.7,0-85.1c0-29.7,3.7-59.2,3.5-89.2c-1-119.4,3.6-238.8,2.7-358.2
		c-2-250.5-1.8-500.9-1.9-751.4c0-140.5,0-280.9,0-421.3c0-10.3-8.4-18.7-18.8-18.7c-10.3,0-18.6,8.4-18.7,18.7L2924.6,2047.4z"/>
	<path class="st7" d="M2939.7,1145.9c-1.2,88-3.8,176-6.1,264c-0.7,24.1,36.6,24,37.2,0c2.3-88,4.9-176,6.1-264
		C2976.9,1121.8,2939.9,1121.8,2939.7,1145.9z"/>
	<path class="st7" d="M2892.5,989.8v11.1c-0.1,0.9-0.1,1.7,0,2.6c0,2.7,0,5.5,1,7.9l0.7,2.3c1.6,5,5,9.3,9.5,12
		c5.5,3.2,12.4,3.2,17.9,0c4.6-2.7,7.9-7,9.5-12l0.7-2.3c0.7-3.4,1.1-7,1.1-10.5v-11.1c0.1-2.7-0.5-5.3-1.8-7.7
		c-1.7-5.3-5.9-9.4-11.1-11.1c-2.4-1.3-5-1.9-7.7-1.8l-5.5,0.8c-3.4,0.9-6.4,2.7-8.9,5.1C2894.3,979.2,2892.4,984.4,2892.5,989.8z"
		/>
	<path class="st7" d="M2876.5,1550v12.2c0,1,0,1.9,0,3.1c0.1,1.1,0.3,2.2,0.7,3.2l1.8,4.2c1.1,2,2.6,3.8,4.6,5
		c1.1,1.1,2.5,1.9,4,2.3c2.1,1.1,4.5,1.7,6.9,1.6l4.8-0.7l4.3-1.8c2.1-1.1,3.8-2.7,5-4.7c1.6-1.7,2.7-3.8,3.2-6c0.8-2.6,1.1-5.3,1-8
		V1550c0.1-2.5-0.4-4.9-1.6-7.1c-1.7-4.5-5.2-8-9.7-9.7c-2.2-1.1-4.7-1.7-7.1-1.6l-4.9,0.7c-3,0.9-5.8,2.5-8,4.7l-2.9,3.8
		c-1.6,2.8-2.5,6-2.6,9.3L2876.5,1550z"/>
	<path class="st7" d="M2874,1870.6v9.3c0.1,2.9,0.5,5.8,1.1,8.7v2.1c0.1,0.8,0.3,1.5,0.7,2.2l1.6,3.8c1,1.8,2.3,3.2,4,4.3
		c0.9,1,2.1,1.7,3.5,2c1.8,1,3.9,1.5,6,1.3l4.1-0.6l3.7-1.6c1.8-0.9,3.3-2.3,4.3-4c1.4-1.5,2.4-3.3,2.9-5.4c0.3-0.7,0.5-1.5,0.7-2.2
		v-2.1c0.6-2.9,0.9-5.8,1-8.7v-9.3c0.1-2.3-0.4-4.6-1.4-6.7c-0.7-2.1-1.9-4-3.6-5.5c-1.5-1.7-3.4-2.9-5.6-3.6
		c-2-1.1-4.3-1.6-6.6-1.6l-4.6,0.7c-2.9,0.7-5.6,2.3-7.7,4.5c-3.2,3.3-5,7.6-5,12.2L2874,1870.6z"/>
	<path class="st7" d="M2866.5,847.5c-0.9-48.6-1.7-97.1,1-145.7c0.4-21.8,2.3-43.5,5.5-65c3.6-19.4,18.2-26.6,36.2-30.9
		c10-2.3,16.1-0.9,20.6,9.4c3,7.9,4.4,16.4,4.1,24.9c0,22.3-1,44-1.6,66c-1.3,48.9-2.1,97.8-2.9,146.7c0,24.4,37.1,24.3,37.8,0
		c1.3-45.4,2.8-90.8,3.6-136.2c0-22.3,1.4-43.9,1.1-65.9c0.6-18.4-3.5-36.7-11.8-53.2c-8.5-16.3-24.8-26.9-43.1-28.2
		c-17.8,0.2-35.2,5.1-50.4,14.4c-36.3,22.3-33.4,72.6-35.9,110.3c-4,51.1-3.6,102.5,1.1,153.5C2834.1,869.8,2867,870.3,2866.5,847.5
		z"/>
	<path class="st7" d="M2781.9,3890c-12.8,4.4-19.6,18.4-15.1,31.2c1.2,3.5,3.2,6.7,5.9,9.4c12.9,11.3,28.1,19.6,44.6,24.3
		c49.1,15,102.3,8.1,145.9-19.1c9.4-5.4,16.1-14.4,18.5-25c2.6-11.6-4.3-23.3-15.8-26.4c-4.7-1.3-9.8-0.7-14.2,1.6
		c-2.3,1.6-4.3,3.6-5.8,5.9c3.5-4.1,1.2-1.7,0.6-0.9c-6.5,7.2-3.9,5-2.6,3.5c-0.9,1.1-2.1,2.8-0.9,1.7c-3.7,2.8-7.7,5.2-11.9,7
		c-13.6,7-28.2,11.8-43.3,14.2c-16.5,2.1-33.1,2.1-49.6,0c-8.1-0.7-16.1-2.1-24-4.2c-4.6-1.2-9.1-2.7-13.5-4.5l-3.5-1.4l-2.5-1.2
		c-3.7-1.7-3.8,1.4,0,9.6l-6.6,3.9l1.7-0.7c7.9-2.2,12.6-10.4,10.4-18.3c-2.2-7.9-10.4-12.6-18.3-10.4L2781.9,3890z"/>
	<path class="st7" d="M1099.4,2159.4c5.8,25.6,12,50.9,20.4,75.8c3.8,12,7.9,24,12,36c6.2,16.7,13.2,31.1,31.3,37.2
		c13.2,3.1,26.8,3.8,40.2,2c14.8-0.9,29.4-2.7,43.9-5.6c13.4-2.1,25.7-8.6,35-18.4c8.5-10.3,13.9-22.8,15.7-36
		c2.4-15.4,4.2-31,6.2-46.4c2.5-15.6,4.1-31.3,4.9-47c0.8-29.4-44.4-36-51.5-7c-3.5,15.8-6.1,31.9-7.8,48l-2.9,22l-1.3,9.4l-0.8,6.4
		c0-2.8,0-2.5,0,0c0,2.5-0.8,4.7-1.3,7c-0.5,2.3-2.8,8.8-1.4,5.6c1.3-3.1-5.5,5.8,0,0.6c5.5-5.2-0.7,0.6-2.4,1.3
		c5.2-2.3-4.3,0.7-5.5,1l-8.5,1.6c-5.8,1-11.6,1.7-17.4,2c-7.2,0-14.4,0.8-21.7,0.8h-8.6c-3.2,0-3.2,0,0,0c2.7,0.7,5,2.1,6.8,4.2
		c1.2,1.4,1.2,1,0-1.4c-0.7-1.7-1.6-3.4-2.2-5c-1.8-4,0-1.2-2.2-4.9c-2.6-6.2-5.3-12-8.3-20c-10.7-26.8-20.1-54-28.2-81.6
		c-3.3-12.3-16-19.6-28.3-16.3c-12.3,3.3-19.6,16-16.3,28.3V2159.4z"/>
	<path class="st7" d="M1159.7,2285.5c-22.3,101.7-37.1,204.8-44.5,308.6c-3.6,48-14,100.8,15.8,142.1c14.5,20,30.2,39.2,45.2,58.9
		c16.7,21.6,32.3,48,54,64.9c10.5,6.1,23.8,4.4,32.4-4.2c8.2-8.8,9.9-21.9,4.2-32.5c-6.3-11.6-14.1-22.3-23.2-31.9l-22.1-27.6
		c-14.5-18.2-29.6-36-43.7-55.1c-11.1-15.5-15.8-34.7-13.1-53.6c1.1-24,2.5-48,4.2-72c6.8-96,18.5-190.7,32.6-285.4
		c2.7-11.5-3.9-23.2-15.2-26.6c-11.6-3.2-23.5,3.6-26.8,15.1V2285.5z"/>
	<path class="st7" d="M1256.9,2285.5c18.1,96,36.7,192,56.4,288c10.6,41.8,8,85.9-7.4,126.2c-17.4,37.8-39,73.6-64.3,106.7
		c-7.3,12.9-3,29.3,9.7,37c12.9,7.2,29.2,2.9,37-9.7c28-36.9,51.3-77.2,69.1-120c16-44,19.2-91.7,9.2-137.5
		c-19.3-101.5-48.7-201-74.4-301c-6-23-39.6-13.1-35.3,9.7L1256.9,2285.5z"/>
	<path class="st7" d="M624.9,1722c18.6,65,45.7,127.2,80.5,185.2c33.8,59.9,78.3,113.1,131.3,157c109.1,85.3,250.6,112.9,386.2,95
		c72.6-9.5,143.4-29.7,210.1-60c61.2-28,113-73.3,148.9-130.2c75.6-116.8,100-263.3,92.3-400.2c-9.2-164.8-63.5-322-125.5-473.3
		c-4.7-15.3-20.4-24.3-36-20.8c-15.4,4.5-24.6,20.4-20.6,36c97.2,237.4,186.4,520.2,72,768c-24.7,53.4-58,106.3-107.3,140.3
		c-53,36-118.1,57.7-180,72c-123.4,29.6-258.4,21.8-368.8-45.4c-57.7-37.5-105.9-88-140.8-147.4c-37.8-59.5-66.9-124.2-86.2-192
		c-10-35.3-65.2-20.3-55,15.1L624.9,1722z"/>
	<path class="st7" d="M658.7,1380.9c6.7-28.6,18.1-56.3,24-84.8c3.7-14.9,3.4-30.5-1.1-45.2c-4.4-12.8-12-24-17.5-36.7
		c-18.4-45.7-8.6-96.8,8.3-141.4c31.6-82.8,97.3-156,169-205.9c73.2-52.5,158.5-85.7,247.9-96.7c45.3-5.2,91.2-4.2,136.2,3.1
		c57.4,9.7,112.8,27.7,169.7,39.2c108,21.8,233.6,15.2,306.1-79.1c7.9-13.9,3.3-31.5-10.4-39.7c-13.9-7.6-31.3-3-39.6,10.4
		c-57.6,75.5-169.8,69.4-252,51.7c-58.2-12-115.2-30.7-174.2-39.1c-46.4-6.8-93.5-7.6-140-2.2c-186.7,22.2-367.6,132-452.4,303.8
		c-26.6,53.8-43.2,113.9-34.6,174.1c2,14.1,5.6,28,10.8,41.3c5.2,12.8,16.1,26.5,18.6,40.2c2.5,13.7-4.4,30.1-6.7,43
		c-3,17.2-6.1,34.3-8.6,51.5c-3.2,12.8,4.3,25.9,16.9,29.8c12.7,3.6,26-3.8,29.6-16.5c0-0.1,0.1-0.3,0.1-0.4L658.7,1380.9z"/>
	<path class="st7" d="M1718.2,824.6c-16.9,50.6-51.5,105-102.7,126.1c-30.7,11.2-64,13.5-96,6.6c-18.5-3.6-36.8-8.5-54.6-14.6
		c-18.3-7.8-37.8-12.4-57.7-13.6c-13.2,0.5-23.6,11.6-23.1,24.9c0.2,5.7,2.5,11.2,6.4,15.4c18.1,14.9,39.4,25.6,62.2,31.2
		c19.6,6.6,39.6,11.7,60,15.2c44,8.4,89.5,3.9,131-13.1c67-29.4,104.9-97,120-165.8c2.5-12.6-5.7-24.9-18.3-27.3
		c-11.4-2.3-22.8,4.3-26.5,15.3L1718.2,824.6z"/>
	<path class="st7" d="M1554.7,988.9c-7.7,14.9-17.9,28.6-27,42.6c-9.6,14.9-20.7,28.7-33.2,41.2c-24.2,21.9-54.8,35.4-87.2,38.6
		c-37.2,3.6-74.8,0.2-110.8-10.2c-37.2-8.6-73-22.3-106.6-40.6c-64.6-37.1-119-90.8-192-111.7c-71.3-20.9-148.2,2-196.3,58.6
		c-53.5,60.5-78.5,141.1-68.5,221.3c0.4,16.2,13.5,29.2,29.6,29.6c16.3-0.1,29.6-13.3,29.6-29.6c-9.7-65.2,9.5-131.3,52.7-181.1
		c19.6-23.2,46.3-39.4,76-46.2c33.4-6.5,68.6,4.3,98.3,19.2c65.6,32.8,118.4,85.1,186.7,113.4c70.1,28.9,151.6,48,226.9,33
		c38.7-7.3,74.4-25.7,102.7-52.9c14.6-14.9,26.4-32.4,34.7-51.6c8.8-19.2,13-38.9,19.9-58.4c7-19.6-25.7-34.8-36-15.1L1554.7,988.9z
		"/>
	<path class="st7" d="M702.3,1407.8c-17.1-35.4-54.8-56.1-93.8-51.6c-42.5,5.3-69.4,39.7-82.9,77.6c-14.1,43.8-18.5,90.1-12.8,135.7
		c2.4,24.1,6.9,48,13.4,71.4c5.2,22.6,14.4,44.1,27,63.6c34,46.2,109.6,44.2,149.9,7c9-9.7,8.5-24.9-1.3-33.9
		c-4.2-3.9-9.8-6.2-15.5-6.4c-22.6,0-44.3,12-67.1,8.6c-16.4-2.6-22.2-14.5-27.6-28.9c-15.6-41.5-22.9-85.6-21.7-130
		c1-32,2-77.2,26.8-101.4c15.8-14.6,40.5-13.6,55.1,2.2c3.1,3.3,5.5,7.2,7.3,11.3c7,11.9,22.3,15.9,34.3,9
		C705,1434.9,709,1419.8,702.3,1407.8z"/>
	<path class="st7" d="M1361.6,1294.2c6.4,10.9,11.9,22.3,16.4,34.1c4.6,12.4,8.3,25.1,11,38c0.7,3.3,1.3,6.5,1.8,9.7
		c0,1.2,1.6,10.8,0.8,4.8c0.7,6.6,1.3,13.2,1.6,19.8c0.7,14.1,0.3,28.3-1.3,42.4c0.1,16.3,13.2,29.5,29.5,29.5
		c16.2-0.4,29.2-13.4,29.6-29.5c6.9-62-7.5-124.5-40.9-177.2c-8.6-13-26.1-16.5-39.1-7.9C1359.1,1265.8,1355,1281.4,1361.6,1294.2z"
		/>
	<path class="st7" d="M1064.6,1341.7c6.5,10.9,12,22.3,16.6,34.1c4.6,12.4,8.3,25.1,11,38l1.8,9.7c0,1.2,1.4,10.9,0.7,4.8
		c0.8,6.6,1.3,13.2,1.7,19.8c0.7,14,0.3,28.1-1.2,42c-0.1,16.2,13,29.5,29.3,29.5c0.1,0,0.2,0,0.2,0c16.1-0.4,29.1-13.4,29.5-29.5
		c6.9-62-7.5-124.5-40.9-177.1c-9.5-12.3-27.1-14.6-39.4-5.1c-10.2,7.9-13.7,21.6-8.6,33.4L1064.6,1341.7z"/>
	<path class="st7" d="M1280.5,1515.2c8.8,24,21.8,46.2,38.3,65.6c17.9,17.3,38.1,32,60,43.7l2.5,1.7l2,2c-1.2-1.8-1.2-1.9,0,0
		c1.2,1.9,0,0,0-0.7c1,2.4,0,3.5,0,5.9c-3.3,10.5-8.4,20.3-15.1,29c-6.4,8.7-13.7,16.8-21.8,24c-4.3,4-9,7.3-13.2,11.3
		c-7.6,6.9-12.3,16.5-13.1,26.8c0.1,11.2,7.7,21,18.5,24c19.4,5.8,36-8.2,49.7-20.3c11.2-10.4,21.3-22,30.1-34.6
		c18.8-26.3,33.8-61.6,17.8-92.8c-12.6-24-42.8-33.5-61.1-48c-20.7-14.9-37.7-34.4-49.8-56.9c-12-24-54.1-6.8-43.9,18.5
		L1280.5,1515.2z"/>
	<path class="st7" d="M1378.7,1809.1c-45.2,34.6-107.4,20.6-159.1,12c-31.8-6.9-64.2-9.9-96.7-8.9c-17.1,1.4-34,3.9-50.8,7.6
		c-17.5,2.1-34.4,7.2-50.2,15c-11.9,7.6-15.3,23.4-7.7,35.3c4.5,7,12.2,11.4,20.5,11.7c17.7-0.1,35.3-3,52.1-8.4
		c16.5-3.9,33.3-6.2,50.2-6.7c33.2,1.2,66.3,4.9,99,11c58,7.9,120,2.2,164.8-39.7c14.8-13.7-5.4-41.2-22.1-28.6V1809.1z"/>
	<path class="st7" d="M1798.4,1262.1c6.2-28.6,10.6-58.2-2.5-85.7c-13.2-23.6-35.7-40.5-62-46.7c-57.1-15.1-117.3-13.4-173.4,4.9
		c-31.3,10-18.5,58.1,13.6,49.3c43.5-12.5,89.2-14.7,133.7-6.4c15.7,3.2,32.8,8.2,40.3,19.1c9.7,14.3,6.1,36,3.6,52.6
		c-3.1,12.8,4.3,25.9,16.9,29.8c12.7,3.7,26-3.6,29.7-16.4C1798.3,1262.5,1798.3,1262.3,1798.4,1262.1z"/>
</g>
</svg>
