<?xml version="1.0" encoding="utf-8"?>
<!-- Generator: Adobe Illustrator 24.0.1, SVG Export Plug-In . SVG Version: 6.00 Build 0)  -->
<svg version="1.1" id="Layer_1" xmlns="http://www.w3.org/2000/svg" xmlns:xlink="http://www.w3.org/1999/xlink" x="0px" y="0px"
	 viewBox="0 0 396 612" style="enable-background:new 0 0 396 612;" xml:space="preserve">
<style type="text/css">
	.st0{fill:#FF9180;stroke:#FFFFFF;stroke-width:0.9789;stroke-miterlimit:10;}
	.st1{fill:#2A76EA;stroke:#FFFFFF;stroke-width:2;stroke-miterlimit:10;}
	.st2{fill:#FFFFFF;}
	.st3{font-family:'EthnocentricRg-Regular';}
	.st4{font-size:38.3172px;}
	.st5{fill:#FF9180;}
	.st6{fill:none;stroke:#000000;stroke-width:0.25;}
</style>
<path class="st0" d="M317.5,371.3H78c-4.4,0-8-3.6-8-8V235c0-4.4,3.6-8,8-8h239.5c4.4,0,8,3.6,8,8v128.3
	C325.5,367.7,321.9,371.3,317.5,371.3z"/>
<g>
	<path class="st1" d="M90.1,271.7c0.3,1,0.6,2,0.9,3h15.9l-0.8-2.4c0-0.6-0.1-1.2-0.1-1.8c-1.1-5.5-2.1-11.1-3.2-16.7l-0.6-11.2
		c0.1-2.6,0.1-5.3,0.2-8c0.7-6.9,2-13.6,5.5-19.8c3.7-8.1,9.2-14.4,17.2-18.5l2-1.2c1.9-0.8,3.8-1.5,5.8-2.3l11.4-2.2
		c3,0,5.9-0.1,8.8-0.1c5.2,0.9,10.4,1.7,15.6,2.6c4.9,1.7,10.8,4.4,15.7,6.2c4.1,2.4,38.4,21.5,42.5,23.9c0.4-0.5,0.2-0.3,0.6-0.8
		l-34.9-20.9c-2.8-1.5-7.1-3.8-9.9-5.3l-9.6-4.4c-3.6-1.2-7.3-2.5-10.9-3.7c-2.4-0.6-6.2-1.5-8.6-2.1c-0.1,0-0.3,0-0.5-0.1
		c-3-0.4-6-0.8-9-1.2c-0.9,0-1.9,0-2.8,0c-3.7,0.3-7.4,0.5-11.1,0.7c-2.2,0.3-4.5,0.5-6.7,0.7c-2.6,0.8-5.2,1.6-7.8,2.5
		c-3.3,1.9-6.5,3.8-9.8,5.7c-0.6,0.5-1.1,0.9-1.7,1.4c-2.6,3-5.3,6-7.9,9c-0.2,0.2-0.3,0.4-0.4,0.6c-1.6,3.2-3.1,6.3-4.7,9.5
		c-1.5,6.5-2.9,12.7-4.4,19.2c0,0.4,0,0.9,0,1.3c0,9.6-0.4,19.2,1.9,28.7C89.2,266.6,89.6,269.1,90.1,271.7z"/>
	<path class="st1" d="M291.1,393.9c-2.4,2-8.1,7.8-10.5,9.8c-1.9,1.2-3.8,2.3-5.7,3.5c-2.2,0.8-4.4,1.7-6.6,2.6
		c-2.9,0.6-5.8,1.2-8.7,1.8l-3.8,0.1c-6-0.7-15.4-1.9-21.4-2.6c-3.8-1.1-7.5-2.1-11.3-3.2c-0.7-0.3-1.3-0.5-1.9-0.7l-10.2-4.4
		c-1.6-0.8-3.2-1.6-4.8-2.4c-1.5-0.9-3.1-1.8-4.7-2.7c-13.9-8-26.3-18.1-37.8-29.3c-2.5-2.6-5.1-5.2-7.6-7.8l-6.7-7.5
		c-0.9-1.1-2.4-2.9-3.3-4l-1.7-2.1c-4.4-6.3-11.5-16.5-15.9-22.7c-0.5-0.8-1.1-1.6-1.6-2.4h-17.3l0.3,0.5c2.7,4.3,5.4,8.5,8.1,12.8
		v0.1c0.1,0.1,0.1,0.2,0.2,0.3l16.8,22.6c6.5,7.2,12.9,14.4,19.4,21.6c9.8,8.1,19.6,16.2,29.4,24.3c2,1.3,4.1,2.7,6.2,4
		c3,1.8,6.1,3.6,9.1,5.4c3.6,1.9,7.1,3.7,10.7,5.6c0.7,0.3,1.4,0.6,2.1,0.9l10.5,4c4.4,1.2,11.5,3,15.9,4.1c1.5,0.2,2.9,0.4,4.4,0.6
		c2.5,0.1,5,0.3,7.5,0.4c2.3,0,4.7-0.1,7-0.1c0.7-0.1,1.4-0.4,2.1-0.5c7-0.6,13.6-2.8,19.7-6.3c1.6-1,3.2-2.1,4.8-3.1
		c2.8-3.1,7-7.9,9.8-11.1c1.8-3.7,6.9-11,8.7-14.7C297.5,389.1,294.9,389.8,291.1,393.9z"/>
</g>
<text transform="matrix(1 0 0 1 84.772 310.2109)" class="st2 st3 st4">TC SHOP</text>
<path class="st5" d="M86.9,379.3c-3.2,0-6.4,0-9.7,0c-3.2,0-6.3,0-9.5,0c-1.3-0.7-2.6-1.3-3.9-2c-0.5-3.2-0.9-6.4-1.4-9.5
	c0-2.8,0-5.6,0-8.4c0-3.6,0-7.2,0-10.7c0-2.8,0-5.6,0-8.4c0-3.6,0-7.2,0-10.7c0-2.8,0-5.6,0-8.4c0-3.6,0-7.2,0-10.7
	c0-2.8,0-5.6,0-8.4c0-3.6,0-7.2,0-10.7c0-2.8,0-5.6,0-8.4c0-3.6,0-7.2,0-10.7c0-2.8,0-5.6,0-8.4c0-3.6,0-7.2,0-10.7
	c0-2.8,0-5.6,0-8.4c0-3.6,0-7.2,0-10.7c0-2.8,0-5.6,0-8.4c0.4-3.2,1.3-6,5.1-6.4c3.2,0,6.5,0,9.7,0s6.3,0,9.5,0
	c0.4,0.5,1,0.9,1.1,1.4c0.2,3.1-1.3,4.5-4.6,4.6c-5.2,0.2-10.3,0.4-15.5,0.6c0,2.9,0,5.9-0.1,8.8c0,3.2,0,6.5,0,9.7s0,6.3,0,9.5
	c0,3.2,0,6.5,0,9.7s0,6.3,0,9.5s0,6.5,0,9.7s0,6.3,0,9.5s0,6.5,0,9.7s0,6.3,0,9.5s0,6.5,0,9.7s0,6.3,0,9.5s0,6.5,0,9.7s0,6.3,0,9.5
	s0,6.5,0,9.7s0,6.3,0,9.5c-0.1,4.5-0.1,4.5,4.5,4.5c1.5,0,3-0.1,4.4-0.1c3.4,0,6.8,0,10.1,0c3.2,0,6.4,0,9.7,0c3.2,0,6.3,0,9.5,0
	s6.4,0,9.7,0c3.2,0,6.3,0,9.5,0c3.2,0,6.4,0,9.7,0c3.4,0,6.8,0,10.1,0c3.8-0.1,5,3.6,7.7,5.2c-0.5,0.4-1,1.2-1.6,1.2
	c-2.2,0.2-4.4,0.1-6.6,0.1c-3.2,0-6.4,0-9.7,0c-3.2,0-6.3,0-9.5,0s-6.4,0-9.7,0c-3.2,0-6.3,0-9.5,0s-6.4,0-9.7,0
	C93.3,379.3,90.1,379.3,86.9,379.3z"/>
<path class="st5" d="M49.1,390.8c-1.5-0.3-2.9-0.5-4.4-0.8c-0.4-9.8-0.7-8.3,7.8-8.3c32.6-0.1,65.2,0,97.8,0c1.8,0,3.6-0.1,5.4-0.1
	c4.2,3.6,8.3,7.3,12.8,11.2c-1.9,0.2-3.2,0.4-4.4,0.5c-3.4,0-6.8,0-10.2,0c-1.5,0-3,0-4.5,0c-1-0.2-2.1-0.5-3.1-0.5
	c-26,0-52.1,0-78.1,0c-2.5-0.2-5.1-0.5-7.6-0.7C56.8,391.6,53,391.2,49.1,390.8z M77.3,386.6c0,0.4,0,0.8,0,1.2
	c4.3,0.6,8.6,0.8,12.9-0.2c0-0.3,0-0.7,0-1C85.9,386.6,81.6,386.6,77.3,386.6z"/>
<path class="st5" d="M205.8,393.2c-1.1,0-2.1,0-3.2,0c-5.4,0.2-8.5-4-12.8-6.1c0.1-0.3,0.1-0.6,0.2-0.9c2.3,0,4.5,0,6.8,0
	c7.9,0,15.8,0,23.6,0c1.3,0,2.6-0.1,3.8-0.3c2.4-0.3,4.9-0.7,3.9-4.4c1.3-0.1,2.2-0.3,3.1-0.3c38.9,0,77.7,0,116.6,0
	c0.5,0,1.1,0.1,1.6,0.1c0.6,0.4,1.1,0.7,1.7,1.1c0,0.7,0.1,1.5,0.1,2.2c0.1,5.6,0.1,5.6-5.6,6.2c-2.8,0.3-5.6,0.6-8.4,0.9
	c-3.8,0.3-7.6,0.7-11.5,1c-0.2-0.1-0.5-0.1-0.7-0.2c-1.5-0.2-2.9-0.5-4.4-0.5c-36.5,0-72.9,0-109.4,0c-1,0-2,0-3,0
	c0,0.2,0,0.3,0,0.5c1,0.1,2.1,0.1,3.1,0.2C209.7,392.9,207.7,393.1,205.8,393.2z"/>
<path class="st5" d="M105.4,224.8c0.6-1.6,1.3-3.2,1.9-4.8c1.9-0.2,3.8-0.6,5.7-0.6c70.4,0,140.7,0,211.1,0c1.7,0,3.4-0.3,5-0.5
	c2.9,0.8,3.5,3.1,3.8,5.7c-0.2,1.4-0.5,2.7-0.5,4.1c0,46.9,0,93.8,0,140.7c0,1.4,0.3,2.7,0.5,4.1c-0.5,1.5-1,3-1.5,4.5
	c-0.5,0.3-1,0.7-1.5,1c-1.6,0.1-3.2,0.3-4.8,0.3c-46.6,0-93.3-0.1-139.9,0.2c-5.5,0-8.8-2.5-12.8-6.4c52.1,0,103.5,0,155.4,0
	c0-1.7,0-2.9,0-4.2c0-46.5,0-93.1,0-139.6c0-4.2,0-4.2-4.2-4.2c-2.7,0-5.3,0.1-8,0.1c-2.5,0-5.1,0-7.6,0c-4.1,0-8.1,0-12.2,0
	c-2.1,0-4.2,0-6.4,0c-3.8,0-7.7,0-11.5,0c-2.8,0-5.5,0-8.3,0c-3.8,0-7.7,0-11.5,0c-2.3,0-4.7,0-7,0c-4.1,0-8.1,0-12.2,0
	c-2.5,0-5.1,0-7.6,0c-3.4,0-6.8,0-10.2,0c-2.8,0-5.5,0-8.3,0c-4.3,0-8.5,0-12.8,0c-2.3,0-4.7,0-7,0c-3.6,0-7.3,0-10.9,0
	c-2.8,0-5.5,0-8.3,0c-3.6,0-7.3,0-10.9,0c-2.8,0-5.5,0-8.3,0c-3.8,0-7.7,0-11.5,0c-2.5,0-5.1,0-7.6,0c-4.1,0-8.1,0-12.2,0
	c-2.1,0-4.2,0-6.4,0C113.1,225,109.3,224.9,105.4,224.8z"/>
<path class="st5" d="M211.6,392.7c-1-0.1-2.1-0.1-3.1-0.2c0-0.2,0-0.3,0-0.5c1,0,2,0,3,0c36.5,0,72.9,0,109.4,0
	c1.5,0,2.9,0.3,4.4,0.5c-1,0.1-2,0.2-2.9,0.3c-6.9,0-13.8,0.1-20.7,0.1c-9.8-0.1-19.6-0.1-29.4-0.2c-0.9,0-1.7,0-2.6,0
	c-3.4,0-6.8,0-10.2,0c-3.2,0-6.4,0-9.6,0c-3.2,0-6.4,0-9.6,0c-3.2,0-6.4,0-9.6,0c-6,0.1-12.1,0.2-18.1,0.4
	C212.3,393,212,392.8,211.6,392.7z"/>
<path class="st5" d="M108,218.6c1.5,0,3,0.1,4.5,0.1c70.7,0,141.5,0,212.2,0c1.5,0,3,0.1,4.5,0.1c-1.7,0.2-3.4,0.5-5,0.5
	c-70.4,0-140.7,0-211.1,0c-1.9,0-3.8,0.4-5.7,0.6C107.6,219.5,107.8,219.1,108,218.6z"/>
<path class="st5" d="M332.9,224.5c0,1.4,0.1,2.8,0.1,4.1c0,46.9,0,93.7,0,140.6c0,1.4-0.1,2.8-0.1,4.1c-0.2-1.4-0.5-2.7-0.5-4.1
	c0-46.9,0-93.8,0-140.7C332.4,227.2,332.7,225.9,332.9,224.5z"/>
<path class="st6" d="M193.4,203.1"/>
</svg>
